<svg id="visual" viewBox="0 0 600 900" width="600" height="900" xmlns="http://www.w3.org/2000/svg" xmlns:xlink="http://www.w3.org/1999/xlink" version="1.1"><rect x="0" y="0" width="600" height="900" fill="#f9f9f9"></rect><path d="M0 515L16.7 511.7C33.3 508.3 66.7 501.7 100 483.8C133.3 466 166.7 437 200 434.8C233.3 432.7 266.7 457.3 300 473C333.3 488.7 366.7 495.3 400 493.3C433.3 491.3 466.7 480.7 500 470.2C533.3 459.7 566.7 449.3 583.3 444.2L600 439L600 901L583.3 901C566.7 901 533.3 901 500 901C466.7 901 433.3 901 400 901C366.7 901 333.3 901 300 901C266.7 901 233.3 901 200 901C166.7 901 133.3 901 100 901C66.7 901 33.3 901 16.7 901L0 901Z" fill="#c9c9c9"></path><path d="M0 592L16.7 587.5C33.3 583 66.7 574 100 551.8C133.3 529.7 166.7 494.3 200 498.3C233.3 502.3 266.7 545.7 300 559.2C333.3 572.7 366.7 556.3 400 552.5C433.3 548.7 466.7 557.3 500 547.7C533.3 538 566.7 510 583.3 496L600 482L600 901L583.3 901C566.7 901 533.3 901 500 901C466.7 901 433.3 901 400 901C366.7 901 333.3 901 300 901C266.7 901 233.3 901 200 901C166.7 901 133.3 901 100 901C66.7 901 33.3 901 16.7 901L0 901Z" fill="#bababa"></path><path d="M0 533L16.7 529.2C33.3 525.3 66.7 517.7 100 519.3C133.3 521 166.7 532 200 551.3C233.3 570.7 266.7 598.3 300 606C333.3 613.7 366.7 601.3 400 581.8C433.3 562.3 466.7 535.7 500 522C533.3 508.3 566.7 507.7 583.3 507.3L600 507L600 901L583.3 901C566.7 901 533.3 901 500 901C466.7 901 433.3 901 400 901C366.7 901 333.3 901 300 901C266.7 901 233.3 901 200 901C166.7 901 133.3 901 100 901C66.7 901 33.3 901 16.7 901L0 901Z" fill="#aaaaaa"></path><path d="M0 594L16.7 616.8C33.3 639.7 66.7 685.3 100 707.2C133.3 729 166.7 727 200 712.5C233.3 698 266.7 671 300 669.8C333.3 668.7 366.7 693.3 400 692.7C433.3 692 466.7 666 500 646C533.3 626 566.7 612 583.3 605L600 598L600 901L583.3 901C566.7 901 533.3 901 500 901C466.7 901 433.3 901 400 901C366.7 901 333.3 901 300 901C266.7 901 233.3 901 200 901C166.7 901 133.3 901 100 901C66.7 901 33.3 901 16.7 901L0 901Z" fill="#9b9b9b"></path><path d="M0 683L16.7 694.7C33.3 706.3 66.7 729.7 100 735.7C133.3 741.7 166.7 730.3 200 734.3C233.3 738.3 266.7 757.7 300 762.5C333.3 767.3 366.7 757.7 400 755C433.3 752.3 466.7 756.7 500 750.7C533.3 744.7 566.7 728.3 583.3 720.2L600 712L600 901L583.3 901C566.7 901 533.3 901 500 901C466.7 901 433.3 901 400 901C366.7 901 333.3 901 300 901C266.7 901 233.3 901 200 901C166.7 901 133.3 901 100 901C66.7 901 33.3 901 16.7 901L0 901Z" fill="#8d8d8d"></path><path d="M0 781L16.7 786.7C33.3 792.3 66.7 803.7 100 807C133.3 810.3 166.7 805.7 200 799.3C233.3 793 266.7 785 300 782.2C333.3 779.3 366.7 781.7 400 780.3C433.3 779 466.7 774 500 770.3C533.3 766.7 566.7 764.3 583.3 763.2L600 762L600 901L583.3 901C566.7 901 533.3 901 500 901C466.7 901 433.3 901 400 901C366.7 901 333.3 901 300 901C266.7 901 233.3 901 200 901C166.7 901 133.3 901 100 901C66.7 901 33.3 901 16.7 901L0 901Z" fill="#7e7e7e"></path></svg>