<svg id="visual" viewBox="0 0 900 600" width="900" height="600" xmlns="http://www.w3.org/2000/svg" xmlns:xlink="http://www.w3.org/1999/xlink" version="1.1"><rect x="0" y="0" width="900" height="600" fill="#f9f9f9"></rect><path d="M0 343L25 340.8C50 338.7 100 334.3 150 322.5C200 310.7 250 291.3 300 289.8C350 288.3 400 304.7 450 315C500 325.3 550 329.7 600 328.3C650 327 700 320 750 313.2C800 306.3 850 299.7 875 296.3L900 293L900 601L875 601C850 601 800 601 750 601C700 601 650 601 600 601C550 601 500 601 450 601C400 601 350 601 300 601C250 601 200 601 150 601C100 601 50 601 25 601L0 601Z" fill="#c9c9c9"></path><path d="M0 394L25 391C50 388 100 382 150 367.2C200 352.3 250 328.7 300 331.3C350 334 400 363 450 372.2C500 381.3 550 370.7 600 368.2C650 365.7 700 371.3 750 364.8C800 358.3 850 339.7 875 330.3L900 321L900 601L875 601C850 601 800 601 750 601C700 601 650 601 600 601C550 601 500 601 450 601C400 601 350 601 300 601C250 601 200 601 150 601C100 601 50 601 25 601L0 601Z" fill="#bababa"></path><path d="M0 355L25 352.5C50 350 100 345 150 346.2C200 347.3 250 354.7 300 367.5C350 380.3 400 398.7 450 403.7C500 408.7 550 400.3 600 387.3C650 374.3 700 356.7 750 347.7C800 338.7 850 338.3 875 338.2L900 338L900 601L875 601C850 601 800 601 750 601C700 601 650 601 600 601C550 601 500 601 450 601C400 601 350 601 300 601C250 601 200 601 150 601C100 601 50 601 25 601L0 601Z" fill="#aaaaaa"></path><path d="M0 396L25 411.2C50 426.3 100 456.7 150 471.2C200 485.7 250 484.3 300 474.7C350 465 400 447 450 446.2C500 445.3 550 461.7 600 461.3C650 461 700 444 750 430.7C800 417.3 850 407.7 875 402.8L900 398L900 601L875 601C850 601 800 601 750 601C700 601 650 601 600 601C550 601 500 601 450 601C400 601 350 601 300 601C250 601 200 601 150 601C100 601 50 601 25 601L0 601Z" fill="#9b9b9b"></path><path d="M0 455L25 462.8C50 470.7 100 486.3 150 490.3C200 494.3 250 486.7 300 489.3C350 492 400 505 450 508.3C500 511.7 550 505.3 600 503.5C650 501.7 700 504.3 750 500.2C800 496 850 485 875 479.5L900 474L900 601L875 601C850 601 800 601 750 601C700 601 650 601 600 601C550 601 500 601 450 601C400 601 350 601 300 601C250 601 200 601 150 601C100 601 50 601 25 601L0 601Z" fill="#8d8d8d"></path><path d="M0 521L25 524.7C50 528.3 100 535.7 150 537.8C200 540 250 537 300 532.8C350 528.7 400 523.3 450 521.3C500 519.3 550 520.7 600 519.7C650 518.7 700 515.3 750 512.8C800 510.3 850 508.7 875 507.8L900 507L900 601L875 601C850 601 800 601 750 601C700 601 650 601 600 601C550 601 500 601 450 601C400 601 350 601 300 601C250 601 200 601 150 601C100 601 50 601 25 601L0 601Z" fill="#7e7e7e"></path></svg>